<svg width="1242" height="1020" viewBox="0 0 1242 1020" fill="none" xmlns="http://www.w3.org/2000/svg">
<path opacity="0.2" d="M545.457 912.036C649.793 878.579 726.869 799.708 763.141 703.543C794.88 619.361 862.3 554.853 947.382 529.796C950.055 529.017 952.721 528.163 955.395 527.287C1077.44 486.493 1131.71 355.144 1090.7 229.897C1049.07 102.788 926.226 29.3 802.609 70.7176C768.876 82.0198 739.468 100.409 715.415 123.746C646.426 190.709 553.18 219.495 457.374 212.444C413.327 209.214 366.79 217.537 322.489 232.38C139.641 293.643 51.1139 492.187 113.869 679.488C176.23 865.615 362.988 970.58 545.463 912.053L545.457 912.036Z" fill="url(#paint0_linear_305_5)"/>
<path d="M665.273 907.019C568.295 871.641 498.67 794.523 468.101 702.643C441.354 622.212 380.284 558.976 301.119 532.221C298.632 531.389 296.154 530.485 293.669 529.561C180.293 486.616 134.09 360.944 177.361 244.561C221.273 126.448 339.658 61.837 454.491 105.427C485.827 117.322 512.827 135.728 534.602 158.593C597.058 224.199 683.77 254.768 774.225 251.694C815.811 250.293 859.311 259.86 900.465 275.481C1070.32 339.958 1146.27 530.163 1080.23 704.154C1014.59 877.055 834.873 968.922 665.267 907.035L665.273 907.019Z" fill="url(#paint1_linear_305_5)"/>
<defs>
<linearGradient id="paint0_linear_305_5" x1="1227.37" y1="696.002" x2="506.838" y2="169.815" gradientUnits="userSpaceOnUse">
<stop stop-color="#BC3EDB"/>
<stop offset="1" stop-color="#7B61FF" stop-opacity="0"/>
</linearGradient>
<linearGradient id="paint1_linear_305_5" x1="558.951" y1="1091.17" x2="866.82" y2="75.2758" gradientUnits="userSpaceOnUse">
<stop stop-color="#7B61FF" stop-opacity="0.14"/>
<stop offset="1" stop-color="#7B61FF" stop-opacity="0"/>
</linearGradient>
</defs>
</svg>
