<svg width="64" height="37" viewBox="0 0 64 37" fill="none" xmlns="http://www.w3.org/2000/svg">
<g clip-path="url(#clip0_251_5303)">
<rect width="64" height="37" rx="2" fill="#3A4B68"/>
<path fill-rule="evenodd" clip-rule="evenodd" d="M64 1.93464C64 0.866167 63.1574 0 62.1176 0H1.88236C0.842759 0 0 0.866167 0 1.93464V35.0654C0 36.1338 0.842761 37 1.88236 37H62.1176C63.1574 37 64 36.1338 64 35.0654V1.93464ZM3.76471 13.1492C3.76471 12.0808 4.60747 11.2146 5.64707 11.2146H28.2353C29.275 11.2146 30.1176 12.0808 30.1176 13.1492V23.8507C30.1176 24.9192 29.275 25.7854 28.2353 25.7854H5.64707C4.60747 25.7854 3.76471 24.9192 3.76471 23.8507V13.1492ZM60.2355 13.1492C60.2355 12.0808 59.3927 11.2146 58.3532 11.2146H35.7649C34.7251 11.2146 33.8826 12.0808 33.8826 13.1492V23.8507C33.8826 24.9192 34.7254 25.7854 35.7649 25.7854H58.3532C59.3927 25.7854 60.2355 24.9192 60.2355 23.8507V13.1492Z" fill="#D9D9D9"/>
</g>
<defs>
<clipPath id="clip0_251_5303">
<rect width="64" height="37" rx="2" fill="white"/>
</clipPath>
</defs>
</svg>
