<svg width="64" height="37" viewBox="0 0 64 37" fill="none" xmlns="http://www.w3.org/2000/svg">
<g clip-path="url(#clip0_251_5305)">
<rect width="64" height="37" rx="2" fill="#3A4B68"/>
<path fill-rule="evenodd" clip-rule="evenodd" d="M64 1.93464C64 0.866167 63.1572 0 62.1176 0H1.88235C0.842759 0 0 0.866167 0 1.93464V35.0654C0 36.1338 0.842759 37 1.88235 37H62.1176C63.1572 37 64 36.1338 64 35.0654V1.93464ZM3.76469 5.80392C3.76469 4.73544 4.60747 3.86928 5.64705 3.86928H28.2353C29.2748 3.86928 30.1177 4.73544 30.1177 5.80392V31.1961C30.1177 32.2645 29.2748 33.1307 28.2353 33.1307H5.64705C4.60747 33.1307 3.76469 32.2645 3.76469 31.1961V5.80392ZM33.8824 5.80392C33.8824 4.73544 34.7252 3.86928 35.7647 3.86928H58.3529C59.3927 3.86928 60.2353 4.73544 60.2353 5.80392V14.6307C60.2353 15.6992 59.3927 16.5653 58.3529 16.5653H35.7647C34.7252 16.5653 33.8824 15.6992 33.8824 14.6307V5.80392ZM60.2353 22.3693C60.2353 21.3008 59.3927 20.4346 58.3529 20.4346H35.7647C34.7252 20.4346 33.8824 21.3008 33.8824 22.3693V31.1961C33.8824 32.2645 34.7252 33.1307 35.7647 33.1307H58.3529C59.3927 33.1307 60.2353 32.2645 60.2353 31.1961V22.3693Z" fill="#D9D9D9"/>
</g>
<defs>
<clipPath id="clip0_251_5305">
<rect width="64" height="37" rx="2" fill="white"/>
</clipPath>
</defs>
</svg>
