<svg width="64" height="37" viewBox="0 0 64 37" fill="none" xmlns="http://www.w3.org/2000/svg">
<g clip-path="url(#clip0_251_5307)">
<rect width="64" height="37" rx="2" fill="#3A4B68"/>
<path fill-rule="evenodd" clip-rule="evenodd" d="M0 1.93464C0 0.866167 0.842758 0 1.88235 0H62.1176C63.1574 0 64 0.866167 64 1.93464V35.0654C64 36.1338 63.1574 37 62.1176 37H1.88236C0.84276 37 0 36.1338 0 35.0654V1.93464ZM3.7647 5.80392C3.7647 4.73544 4.60748 3.86928 5.64705 3.86928H58.3529C59.3927 3.86928 60.2353 4.73544 60.2353 5.80392V20.3316C60.2353 21.4001 59.3927 22.2663 58.3529 22.2663H45.1968C43.5645 22.2663 42.3733 23.565 42.3733 25.1682V31.1961C42.3733 32.2645 41.5307 33.1307 40.4909 33.1307H5.64705C4.60748 33.1307 3.7647 32.2645 3.7647 31.1961V5.80392ZM60.2353 27.1029C60.2353 26.0345 59.3927 25.1682 58.3529 25.1682L47.0792 25.1682C46.0396 25.1682 45.1968 26.0345 45.1968 27.1029V31.1961C45.1968 32.2645 46.0396 33.1307 47.0792 33.1307H58.3529C59.3927 33.1307 60.2353 32.2645 60.2353 31.1961V27.1029Z" fill="#D9D9D9"/>
</g>
<defs>
<clipPath id="clip0_251_5307">
<rect width="64" height="37" rx="2" fill="white"/>
</clipPath>
</defs>
</svg>
