<svg width="64" height="37" viewBox="0 0 64 37" fill="none" xmlns="http://www.w3.org/2000/svg">
<g clip-path="url(#clip0_251_5309)">
<rect width="64" height="37" rx="2" fill="#3A4B68"/>
<path fill-rule="evenodd" clip-rule="evenodd" d="M0 1.93464C0 0.866167 0.842759 0 1.88236 0H62.1176C63.1574 0 64 0.866167 64 1.93464V35.0654C64 36.1338 63.1574 37 62.1176 37H1.88236C0.842761 37 0 36.1338 0 35.0654V1.93464ZM53.6407 5.80392C53.6407 4.73544 52.7979 3.86928 51.7583 3.86928H12.2416C11.202 3.86928 10.3593 4.73544 10.3593 5.80392V24.3617C10.3593 25.4304 11.202 26.2964 12.2416 26.2964H51.7583C52.7979 26.2964 53.6407 25.4304 53.6407 24.3617V5.80392ZM3.76471 30.6493C3.76471 29.5809 4.60746 28.7147 5.64706 28.7147H9.72549C10.7651 28.7147 11.6078 29.5809 11.6078 30.6493V31.1958C11.6078 32.2645 10.7651 33.1305 9.72549 33.1305H5.64706C4.60746 33.1305 3.76471 32.2645 3.76471 31.1958V30.6493ZM21.3334 30.6493C21.3334 29.5809 20.4906 28.7147 19.451 28.7147H15.3726C14.333 28.7147 13.4902 29.5809 13.4902 30.6493V31.1958C13.4902 32.2645 14.333 33.1305 15.3726 33.1305H19.451C20.4906 33.1305 21.3334 32.2645 21.3334 31.1958V30.6493ZM23.2157 30.6493C23.2157 29.5809 24.0585 28.7147 25.0981 28.7147H29.1764C30.216 28.7147 31.0588 29.5809 31.0588 30.6493V31.1958C31.0588 32.2645 30.216 33.1305 29.1764 33.1305H25.0981C24.0585 33.1305 23.2157 32.2645 23.2157 31.1958V30.6493ZM40.7844 30.6493C40.7844 29.5809 39.9416 28.7147 38.9021 28.7147H34.8235C33.784 28.7147 32.9411 29.5809 32.9411 30.6493V31.1958C32.9411 32.2645 33.784 33.1305 34.8235 33.1305H38.9021C39.9416 33.1305 40.7844 32.2645 40.7844 31.1958V30.6493ZM42.6668 30.6493C42.6668 29.5809 43.5096 28.7147 44.5492 28.7147H48.6277C49.6673 28.7147 50.5101 29.5809 50.5101 30.6493V31.1958C50.5101 32.2645 49.6673 33.1305 48.6277 33.1305H44.5492C43.5096 33.1305 42.6668 32.2645 42.6668 31.1958V30.6493ZM60.2355 30.6493C60.2355 29.5809 59.3927 28.7147 58.3532 28.7147H54.2746C53.235 28.7147 52.3922 29.5809 52.3922 30.6493V31.1958C52.3922 32.2645 53.235 33.1305 54.2746 33.1305H58.3532C59.3927 33.1305 60.2355 32.2645 60.2355 31.1958V30.6493Z" fill="#D9D9D9"/>
</g>
<defs>
<clipPath id="clip0_251_5309">
<rect width="64" height="37" rx="2" fill="white"/>
</clipPath>
</defs>
</svg>
