<svg width="64" height="37" viewBox="0 0 64 37" fill="none" xmlns="http://www.w3.org/2000/svg">
<g clip-path="url(#clip0_251_5311)">
<rect width="64" height="37" rx="2" fill="#3A4B68"/>
<path fill-rule="evenodd" clip-rule="evenodd" d="M0 1.93464C0 0.866167 0.84276 0 1.88236 0H62.1176C63.1574 0 64 0.866167 64 1.93464V35.0654C64 36.1338 63.1574 37 62.1176 37H1.88236C0.84276 37 0 36.1338 0 35.0654V1.93464ZM48.4706 5.80392C48.4706 4.73544 47.628 3.86928 46.5882 3.86928H5.64707C4.60747 3.86928 3.76472 4.73544 3.76472 5.80392V31.1961C3.76472 32.2645 4.60747 33.1307 5.64707 33.1307H46.5882C47.628 33.1307 48.4706 32.2645 48.4706 31.1961V5.80392ZM50.8235 5.80392C50.8235 4.73544 51.6663 3.86928 52.7059 3.86928H58.3529C59.3927 3.86928 60.2353 4.73544 60.2353 5.80392V7.79901C60.2353 8.86749 59.3927 9.73365 58.3529 9.73365H52.7059C51.6663 9.73365 50.8235 8.86749 50.8235 7.79901V5.80392ZM60.2353 13.6029C60.2353 12.5345 59.3927 11.6683 58.3529 11.6683H52.7059C51.6663 11.6683 50.8235 12.5345 50.8235 13.6029V15.598C50.8235 16.6665 51.6663 17.5327 52.7059 17.5327H58.3529C59.3927 17.5327 60.2353 16.6665 60.2353 15.598V13.6029ZM50.8235 21.4019C50.8235 20.3335 51.6663 19.4673 52.7059 19.4673H58.3529C59.3927 19.4673 60.2353 20.3335 60.2353 21.4019V23.397C60.2353 24.4655 59.3927 25.3317 58.3529 25.3317H52.7059C51.6663 25.3317 50.8235 24.4655 50.8235 23.397V21.4019ZM60.2353 29.201C60.2353 28.1326 59.3927 27.2664 58.3529 27.2664H52.7059C51.6663 27.2664 50.8235 28.1326 50.8235 29.201V31.1961C50.8235 32.2645 51.6663 33.1307 52.7059 33.1307H58.3529C59.3927 33.1307 60.2353 32.2645 60.2353 31.1961V29.201Z" fill="#D9D9D9"/>
</g>
<defs>
<clipPath id="clip0_251_5311">
<rect width="64" height="37" rx="2" fill="white"/>
</clipPath>
</defs>
</svg>
