<svg width="64" height="37" viewBox="0 0 64 37" fill="none" xmlns="http://www.w3.org/2000/svg">
<g clip-path="url(#clip0_251_5323)">
<rect width="64" height="37" rx="2" fill="#3A4B68"/>
<path fill-rule="evenodd" clip-rule="evenodd" d="M64 1.93464C64 0.866168 63.1572 0 62.1176 0H1.88235C0.842759 0 0 0.866168 0 1.93464V35.0654C0 36.1338 0.842761 37 1.88236 37H62.1176C63.1572 37 64 36.1338 64 35.0654V1.93464ZM3.76471 5.80392C3.76471 4.73544 4.60747 3.86928 5.64707 3.86928H28.2353C29.2748 3.86928 30.1176 4.73544 30.1176 5.80392V31.1961C30.1176 32.2645 29.2748 33.1307 28.2353 33.1307H5.64707C4.60747 33.1307 3.76471 32.2645 3.76471 31.1961V5.80392ZM60.2355 5.80392C60.2355 4.73544 59.3927 3.86928 58.3532 3.86928H35.7649C34.7252 3.86928 33.8826 4.73544 33.8826 5.80392V31.1961C33.8826 32.2645 34.7252 33.1307 35.7649 33.1307H58.3532C59.3927 33.1307 60.2355 32.2645 60.2355 31.1961V5.80392Z" fill="#D9D9D9"/>
</g>
<defs>
<clipPath id="clip0_251_5323">
<rect width="64" height="37" rx="2" fill="white"/>
</clipPath>
</defs>
</svg>
