<svg width="52" height="52" viewBox="0 0 52 52" fill="none" xmlns="http://www.w3.org/2000/svg">
<path fill-rule="evenodd" clip-rule="evenodd" d="M26 4.33337C14.04 4.33337 4.33337 14.04 4.33337 26C4.33337 37.96 14.04 47.6667 26 47.6667C37.9384 47.6667 47.6667 37.96 47.6667 26C47.6667 14.04 37.9384 4.33337 26 4.33337ZM40.3109 14.3217C42.9774 17.5702 44.4529 21.6328 44.4925 25.8354C43.8837 25.7184 37.7737 24.4725 31.616 25.2482C31.4752 24.9427 31.356 24.6134 31.2174 24.284C30.834 23.3806 30.4265 22.4877 29.9954 21.606C36.8095 18.8327 39.9122 14.8374 40.3109 14.3217ZM26 7.52921C30.7017 7.52921 35.0004 9.29071 38.2677 12.1832C37.9384 12.6512 35.1412 16.3887 28.561 18.8565C25.5299 13.2882 22.1694 8.72737 21.6515 8.02321C23.0769 7.69001 24.5363 7.52422 26 7.52921ZM18.1285 9.26904C20.6082 12.706 22.8988 16.2755 24.9904 19.9615C16.341 22.2647 8.70354 22.2149 7.88237 22.2149C8.47783 19.4136 9.71236 16.7878 11.4897 14.5423C13.267 12.2967 15.539 10.492 18.1285 9.26904ZM7.48154 26.0217V25.4584C8.28321 25.48 17.2575 25.5992 26.494 22.8259C27.0357 23.8594 27.5275 24.9167 27.9977 25.974C27.7615 26.0455 27.5037 26.1149 27.2697 26.1864C17.7277 29.263 12.6512 37.6762 12.2287 38.3825C9.17336 34.9905 7.48075 30.5869 7.48154 26.0217ZM26 44.5185C21.8865 44.5256 17.8895 43.1523 14.6489 40.6185C14.9782 39.936 18.7395 32.6972 29.172 29.055C29.2197 29.0334 29.2435 29.0334 29.289 29.0074C31.049 33.5474 32.3716 38.2451 33.2389 43.0365C30.9526 44.0203 28.4889 44.5247 26 44.5185ZM36.3155 41.3444C36.1292 40.2177 35.1412 34.8119 32.721 28.1624C38.5255 27.2459 43.602 28.7495 44.2347 28.9619C43.8396 31.4602 42.9321 33.8499 41.5693 35.9808C40.2065 38.1117 38.4178 39.9378 36.3155 41.3444Z" fill="#6366F1"/>
</svg>
