<svg width="52" height="52" viewBox="0 0 52 52" fill="none" xmlns="http://www.w3.org/2000/svg">
<path fill-rule="evenodd" clip-rule="evenodd" d="M26 4.33337C14.0335 4.33337 4.33331 14.0487 4.33331 26.0369C4.33331 35.6244 10.5408 43.7602 19.1511 46.6289C20.2345 46.8282 20.6288 46.1587 20.6288 45.5824C20.6288 45.0689 20.6115 43.7017 20.6006 41.8925C14.573 43.2034 13.3011 38.9827 13.3011 38.9827C12.3175 36.4737 10.8961 35.8064 10.8961 35.8064C8.92881 34.463 11.0456 34.489 11.0456 34.489C13.2188 34.6407 14.3628 36.725 14.3628 36.725C16.2955 40.04 19.435 39.0824 20.6678 38.5277C20.8671 37.1259 21.4261 36.1704 22.0458 35.6287C17.2358 35.0805 12.1766 33.2172 12.1766 24.9015C12.1766 22.5334 13.0216 20.5942 14.4061 19.0775C14.183 18.5294 13.4398 16.3215 14.6185 13.3359C14.6185 13.3359 16.4385 12.7509 20.5768 15.5589C22.3443 15.0768 24.1679 14.8313 26 14.8287C27.8416 14.8374 29.6941 15.0779 31.4253 15.5589C35.5615 12.7509 37.3771 13.3337 37.3771 13.3337C38.5601 16.3215 37.8148 18.5294 37.5938 19.0775C38.9805 20.5942 39.8211 22.5334 39.8211 24.9015C39.8211 33.2389 34.7533 35.074 29.9281 35.6114C30.706 36.2809 31.3971 37.6047 31.3971 39.6305C31.3971 42.5295 31.3711 44.8717 31.3711 45.5824C31.3711 46.163 31.7611 46.839 32.8618 46.6267C37.1763 45.1796 40.9269 42.4132 43.5835 38.7185C46.2402 35.0238 47.6685 30.5876 47.6666 26.0369C47.6666 14.0487 37.9643 4.33337 26 4.33337Z" fill="#6366F1"/>
</svg>
