<svg width="52" height="52" viewBox="0 0 52 52" fill="none" xmlns="http://www.w3.org/2000/svg">
<path fill-rule="evenodd" clip-rule="evenodd" d="M26.6825 4.33337C31.9475 4.33337 32.7145 4.36154 34.9332 4.46337C37.2385 4.56954 38.8137 4.93571 40.1917 5.47087C41.6379 6.01443 42.9482 6.86698 44.031 7.96904C45.1331 9.05188 45.9856 10.3621 46.5292 11.8084C47.0643 13.1864 47.4305 14.7615 47.5367 17.0669C47.6407 19.3787 47.6667 20.1154 47.6667 26V26.1734C47.6667 31.8999 47.6407 32.6452 47.5367 34.9332C47.4305 37.2385 47.0643 38.8137 46.5292 40.1917C45.9856 41.638 45.1331 42.9482 44.031 44.031C42.9482 45.1331 41.6379 45.9856 40.1917 46.5292C38.8137 47.0644 37.2385 47.4305 34.9332 47.5367C32.6213 47.6407 31.8847 47.6667 26 47.6667H25.8267C20.1002 47.6667 19.3548 47.6407 17.0668 47.5367C14.7615 47.4305 13.1863 47.0644 11.8083 46.5292C10.3621 45.9856 9.05185 45.1331 7.96901 44.031C6.86695 42.9482 6.0144 41.638 5.47084 40.1917C4.93568 38.8137 4.56951 37.2385 4.46334 34.9332C4.36151 32.7145 4.33334 31.9454 4.33334 26.6825V25.3175C4.33334 20.0525 4.36151 19.2855 4.46334 17.0669C4.56951 14.7615 4.93568 13.1864 5.47084 11.8084C6.0144 10.3621 6.86695 9.05188 7.96901 7.96904C9.05185 6.86698 10.3621 6.01443 11.8083 5.47087C13.1863 4.93571 14.7615 4.56954 17.0668 4.46337C19.2855 4.36154 20.0547 4.33337 25.3175 4.33337H26.6825ZM26.507 8.23771H25.493C20.1717 8.23771 19.461 8.26154 17.2445 8.36337C15.132 8.46087 13.9858 8.81187 13.221 9.10871C12.2092 9.50304 11.4877 9.97104 10.7293 10.7294C9.97101 11.4877 9.50301 12.2092 9.10868 13.221C8.81184 13.9859 8.45868 15.132 8.36334 17.2445C8.26151 19.461 8.23768 20.1717 8.23768 25.493V26.507C8.23768 31.8284 8.26151 32.539 8.36334 34.7555C8.46084 36.868 8.81184 38.0142 9.10868 38.779C9.50301 39.7887 9.97318 40.5124 10.7293 41.2707C11.4877 42.029 12.2092 42.497 13.221 42.8914C13.9858 43.1882 15.132 43.5414 17.2445 43.6367C19.5282 43.7407 20.2128 43.7624 26 43.7624H26.1733C31.8002 43.7624 32.4935 43.7407 34.7533 43.6367C36.868 43.5392 38.0142 43.1882 38.779 42.8914C39.7887 42.497 40.5123 42.029 41.2707 41.2707C42.029 40.5124 42.497 39.7909 42.8913 38.779C43.1882 38.0142 43.5413 36.868 43.6367 34.7555C43.7407 32.4697 43.7623 31.7872 43.7623 26V25.8267C43.7623 20.1999 43.7407 19.5065 43.6367 17.2467C43.5392 15.132 43.1882 13.9859 42.8913 13.221C42.5442 12.2798 41.9904 11.4283 41.2707 10.7294C40.5717 10.0097 39.7202 9.45594 38.779 9.10871C38.0142 8.81187 36.868 8.45871 34.7555 8.36337C32.539 8.26154 31.8283 8.23771 26.507 8.23771ZM26 14.8742C27.4611 14.8742 28.9078 15.162 30.2577 15.7211C31.6075 16.2802 32.834 17.0998 33.8672 18.1329C34.9003 19.166 35.7198 20.3925 36.2789 21.7424C36.8381 23.0922 37.1258 24.539 37.1258 26C37.1258 27.4611 36.8381 28.9079 36.2789 30.2577C35.7198 31.6076 34.9003 32.8341 33.8672 33.8672C32.834 34.9003 31.6075 35.7198 30.2577 36.279C28.9078 36.8381 27.4611 37.1259 26 37.1259C23.0493 37.1259 20.2194 35.9537 18.1329 33.8672C16.0464 31.7807 14.8742 28.9508 14.8742 26C14.8742 23.0493 16.0464 20.2194 18.1329 18.1329C20.2194 16.0464 23.0493 14.8742 26 14.8742ZM26 18.7785C24.0847 18.7785 22.2479 19.5394 20.8936 20.8937C19.5393 22.248 18.7785 24.0848 18.7785 26C18.7785 27.9153 19.5393 29.7521 20.8936 31.1064C22.2479 32.4607 24.0847 33.2215 26 33.2215C27.9153 33.2215 29.7521 32.4607 31.1064 31.1064C32.4607 29.7521 33.2215 27.9153 33.2215 26C33.2215 24.0848 32.4607 22.248 31.1064 20.8937C29.7521 19.5394 27.9153 18.7785 26 18.7785ZM37.5657 11.8344C38.2552 11.8344 38.9166 12.1083 39.4041 12.5959C39.8917 13.0835 40.1657 13.7448 40.1657 14.4344C40.1657 15.1239 39.8917 15.7853 39.4041 16.2729C38.9166 16.7604 38.2552 17.0344 37.5657 17.0344C36.8761 17.0344 36.2148 16.7604 35.7272 16.2729C35.2396 15.7853 34.9657 15.1239 34.9657 14.4344C34.9657 13.7448 35.2396 13.0835 35.7272 12.5959C36.2148 12.1083 36.8761 11.8344 37.5657 11.8344Z" fill="#6366F1"/>
</svg>
