<svg width="52" height="52" viewBox="0 0 52 52" fill="none" xmlns="http://www.w3.org/2000/svg">
<path d="M17.9616 43.8823C34.3135 43.8823 43.2575 30.3342 43.2575 18.5865C43.2575 18.2008 43.2575 17.8173 43.2315 17.4382C44.9717 16.1783 46.4736 14.6185 47.6666 12.8318C46.0439 13.5512 44.3225 14.023 42.5598 14.2315C44.4159 13.1201 45.8049 11.3722 46.4685 9.31316C44.7237 10.3486 42.8148 11.0784 40.8243 11.4712C39.484 10.045 37.7109 9.10046 35.7795 8.78385C33.8481 8.46724 31.8663 8.79619 30.1407 9.71977C28.4152 10.6434 27.0423 12.11 26.2346 13.8928C25.4269 15.6755 25.2294 17.6747 25.6728 19.581C22.1381 19.4038 18.6801 18.4854 15.5234 16.8852C12.3666 15.2849 9.58169 13.0388 7.34931 10.2925C6.2125 12.2494 5.86426 14.5661 6.37547 16.7707C6.88669 18.9754 8.21894 20.9024 10.101 22.1593C8.68671 22.1184 7.30302 21.7379 6.06665 21.05V21.1627C6.06749 23.2151 6.77817 25.2041 8.07817 26.7924C9.37818 28.3807 11.1875 29.4705 13.1993 29.877C11.8902 30.2339 10.5167 30.2858 9.18448 30.0287C9.75249 31.7955 10.8586 33.3406 12.3481 34.4478C13.8376 35.555 15.6359 36.1689 17.4915 36.2037C15.6479 37.6522 13.5368 38.7231 11.2791 39.3552C9.02126 39.9872 6.66101 40.1679 4.33331 39.887C8.39929 42.4964 13.1304 43.8804 17.9616 43.8737" fill="#6366F1"/>
</svg>
