<svg width="49" height="48" viewBox="0 0 49 48" fill="none" xmlns="http://www.w3.org/2000/svg">
<path d="M28.875 8H12.875C11.8141 8 10.7967 8.42143 10.0466 9.17157C9.29643 9.92172 8.875 10.9391 8.875 12V32M8.875 32V36C8.875 37.0609 9.29643 38.0783 10.0466 38.8284C10.7967 39.5786 11.8141 40 12.875 40H36.875C37.9359 40 38.9533 39.5786 39.7034 38.8284C40.4536 38.0783 40.875 37.0609 40.875 36V28M8.875 32L18.047 22.828C18.7971 22.0781 19.8143 21.6569 20.875 21.6569C21.9357 21.6569 22.9529 22.0781 23.703 22.828L28.875 28M40.875 20V28M40.875 28L37.703 24.828C36.9529 24.0781 35.9357 23.6569 34.875 23.6569C33.8143 23.6569 32.7971 24.0781 32.047 24.828L28.875 28M28.875 28L32.875 32M36.875 8H44.875M40.875 4V12M28.875 16H28.895" stroke="#9CA3AF" stroke-width="2" stroke-linecap="round" stroke-linejoin="round"/>
</svg>
